<svg width="512" height="512" viewBox="0 0 512 512" fill="none" xmlns="http://www.w3.org/2000/svg">
<path d="M79.9999 391.543V224.543C79.9999 169.314 125.402 124.543 180.63 124.543H122.63C67.4009 124.543 22.6299 169.314 22.6299 224.543V391.543C22.6299 446.772 67.4009 491.543 122.63 491.543H180.63C125.402 491.543 79.9999 446.772 79.9999 391.543Z" fill="#FCD8A7" fill-opacity="0.2"/>
<path d="M333 512H120C53.832 512 0 458.168 0 392V228C0 161.832 53.832 108 120 108H392C458.168 108 512 161.832 512 228C512 239.046 503.046 248 492 248C480.954 248 472 239.046 472 228C472 183.888 436.112 148 392 148H120C75.888 148 40 183.888 40 228V392C40 436.112 75.888 472 120 472H333C344.046 472 353 480.954 353 492C353 503.046 344.046 512 333 512ZM131 202C117.193 202 106 213.193 106 227C106 240.807 117.193 252 131 252C144.807 252 156 240.807 156 227C156 213.193 144.807 202 131 202ZM217 202C203.193 202 192 213.193 192 227C192 240.807 203.193 252 217 252C230.807 252 242 240.807 242 227C242 213.193 230.807 202 217 202ZM303 202C289.193 202 278 213.193 278 227C278 240.807 289.193 252 303 252C316.807 252 328 240.807 328 227C328 213.193 316.807 202 303 202ZM387 202C373.193 202 362 213.193 362 227C362 240.807 373.193 252 387 252C400.807 252 412 240.807 412 227C412 213.193 400.807 202 387 202ZM131 288C117.193 288 106 299.193 106 313C106 326.807 117.193 338 131 338C144.807 338 156 326.807 156 313C156 299.193 144.807 288 131 288ZM131 374C117.193 374 106 385.193 106 399C106 412.807 117.193 424 131 424C144.807 424 156 412.807 156 399C156 385.193 144.807 374 131 374ZM217 288C203.193 288 192 299.193 192 313C192 326.807 203.193 338 217 338C230.807 338 242 326.807 242 313C242 299.193 230.807 288 217 288ZM217 374C203.193 374 192 385.193 192 399C192 412.807 203.193 424 217 424C230.807 424 242 412.807 242 399C242 385.193 230.807 374 217 374ZM303 288C289.193 288 278 299.193 278 313C278 326.807 289.193 338 303 338C316.807 338 328 326.807 328 313C328 299.193 316.807 288 303 288ZM303 374C289.193 374 278 385.193 278 399C278 412.807 289.193 424 303 424C316.807 424 328 412.807 328 399C328 385.193 316.807 374 303 374Z" fill="url(#paint0_linear)"/>
<path d="M202 60C202 71.046 193.046 80 182 80C170.954 80 162 71.046 162 60C162 48.972 153.028 40 142 40C130.972 40 122 48.972 122 60C122 71.046 113.046 80 102 80C90.954 80 82 71.046 82 60C82 26.916 108.916 0 142 0C175.084 0 202 26.916 202 60ZM392 60C392 71.046 400.954 80 412 80C423.046 80 432 71.046 432 60C432 26.916 405.084 0 372 0C338.916 0 312 26.916 312 60C312 71.046 320.954 80 332 80C343.046 80 352 71.046 352 60C352 48.972 360.972 40 372 40C383.028 40 392 48.972 392 60ZM512 426.333C512 395.087 484.212 369.666 450.056 369.666C435.537 369.667 425 362.657 425 353C425 343.81 432.402 336.333 441.5 336.333C450.673 336.333 462.621 337.333 481.695 344.751C491.988 348.753 503.58 343.655 507.584 333.36C511.588 323.066 506.488 311.474 496.193 307.471C486.264 303.61 477.607 301.078 470 299.411V284C470 272.954 461.046 264 450 264C438.954 264 430 272.954 430 284V297.516C404.342 302.859 385 325.705 385 353C385 385.305 412.968 409.667 450.056 409.667C461.952 409.667 472 417.299 472 426.334C472 435.212 463.744 443.001 454.333 443.001C446.99 443.001 428.566 440.308 410.388 433.082C400.127 429.004 388.495 434.015 384.415 444.279C380.334 454.544 385.348 466.173 395.612 470.253C407.194 474.857 419.277 478.142 430 480.223V492C430 503.046 438.954 512 450 512C461.046 512 470 503.046 470 492V480.831C479.145 478.258 487.596 473.449 494.639 466.661C505.834 455.873 512 441.55 512 426.333Z" fill="white"/>
<defs>
<linearGradient id="paint0_linear" x1="0" y1="310" x2="512" y2="310" gradientUnits="userSpaceOnUse">
<stop stop-color="#D8AD78"/>
<stop offset="0.503472" stop-color="#FDD9A8"/>
<stop offset="1" stop-color="#D1AA70"/>
</linearGradient>
</defs>
</svg>
