<svg width="512" height="512" viewBox="0 0 512 512" fill="none" xmlns="http://www.w3.org/2000/svg">
<path d="M79.9999 391.543V224.543C79.9999 169.314 125.402 124.543 180.63 124.543H122.63C67.4009 124.543 22.6299 169.314 22.6299 224.543V391.543C22.6299 446.772 67.4009 491.543 122.63 491.543H180.63C125.402 491.543 79.9999 446.772 79.9999 391.543Z" fill="#FCD8A7" fill-opacity="0.2"/>
<path d="M181 512H120C53.832 512 0 458.168 0 392V228C0 161.832 53.832 108 120 108H392C458.168 108 512 161.832 512 228V288C512 299.046 503.046 308 492 308C480.954 308 472 299.046 472 288V228C472 183.888 436.112 148 392 148H120C75.888 148 40 183.888 40 228V392C40 436.112 75.888 472 120 472H181C192.046 472 201 480.954 201 492C201 503.046 192.046 512 181 512ZM512 451V398.176C512 364.443 484.557 337 450.824 337H398C386.954 337 378 345.954 378 357C378 368.046 386.954 377 398 377H450.824C462.5 377 472 386.5 472 398.176V451C472 462.046 480.954 471 492 471C503.046 471 512 462.046 512 451ZM442.455 438.803C450.083 430.815 449.791 418.155 441.803 410.526C433.815 402.898 421.155 403.19 413.526 411.178C376.614 449.831 324.791 472 271.345 472H262C250.954 472 242 480.954 242 492C242 503.046 250.954 512 262 512H271.345C335.666 512 398.033 485.321 442.455 438.803ZM131 202C117.193 202 106 213.193 106 227C106 240.807 117.193 252 131 252C144.807 252 156 240.807 156 227C156 213.193 144.807 202 131 202ZM217 202C203.193 202 192 213.193 192 227C192 240.807 203.193 252 217 252C230.807 252 242 240.807 242 227C242 213.193 230.807 202 217 202ZM303 202C289.193 202 278 213.193 278 227C278 240.807 289.193 252 303 252C316.807 252 328 240.807 328 227C328 213.193 316.807 202 303 202ZM131 288C117.193 288 106 299.193 106 313C106 326.807 117.193 338 131 338C144.807 338 156 326.807 156 313C156 299.193 144.807 288 131 288ZM131 374C117.193 374 106 385.193 106 399C106 412.807 117.193 424 131 424C144.807 424 156 412.807 156 399C156 385.193 144.807 374 131 374ZM217 288C203.193 288 192 299.193 192 313C192 326.807 203.193 338 217 338C230.807 338 242 326.807 242 313C242 299.193 230.807 288 217 288ZM217 374C203.193 374 192 385.193 192 399C192 412.807 203.193 424 217 424C230.807 424 242 412.807 242 399C242 385.193 230.807 374 217 374ZM303 288C289.193 288 278 299.193 278 313C278 326.807 289.193 338 303 338C316.807 338 328 326.807 328 313C328 299.193 316.807 288 303 288Z" fill="url(#paint0_linear)"/>
<path d="M182 80C170.954 80 162 71.046 162 60C162 48.972 153.028 40 142 40C130.972 40 122 48.972 122 60C122 71.046 113.046 80 102 80C90.954 80 82 71.046 82 60C82 26.916 108.916 0 142 0C175.084 0 202 26.916 202 60C202 71.046 193.046 80 182 80ZM432 60C432 26.916 405.084 0 372 0C338.916 0 312 26.916 312 60C312 71.046 320.954 80 332 80C343.046 80 352 71.046 352 60C352 48.972 360.972 40 372 40C383.028 40 392 48.972 392 60C392 71.046 400.954 80 412 80C423.046 80 432 71.046 432 60ZM389 202C375.193 202 364 213.193 364 227C364 240.807 375.193 252 389 252C402.807 252 414 240.807 414 227C414 213.193 402.807 202 389 202Z" fill="white"/>
<defs>
<linearGradient id="paint0_linear" x1="0" y1="310" x2="512" y2="310" gradientUnits="userSpaceOnUse">
<stop stop-color="#D8AD78"/>
<stop offset="0.503472" stop-color="#FDD9A8"/>
<stop offset="1" stop-color="#D1AA70"/>
</linearGradient>
</defs>
</svg>
