<svg width="512" height="512" viewBox="0 0 512 512" fill="none" xmlns="http://www.w3.org/2000/svg">
<g clip-path="url(#clip0)">
<path d="M245.297 438.824L193.085 386.612C148.917 342.444 124.103 282.537 124.103 220.073V140.48C124.103 79.2393 179.254 31.4866 239.475 42.6229C255.654 45.6146 271.457 38.2653 287.156 26.6334C251.322 29.1594 215.73 27.5357 180.38 21.7882C119.482 11.8879 64.1499 58.6654 64.1499 120.362V221.582C64.1499 298.435 94.6801 372.139 149.023 426.483L185.344 462.805C220.575 498.034 275.564 496.457 314.634 468.074C289.504 467.746 264.473 458 245.297 438.824Z" fill="#FCD8A7" fill-opacity="0.2"/>
<path d="M256 512C225.294 512 194.589 500.313 171.213 476.937L134.891 440.615C105.981 411.704 83.3889 377.893 67.7441 340.121C52.0983 302.349 44.1655 262.466 44.1655 221.582V120.362C44.1655 85.1744 59.5345 51.9214 86.3316 29.1292C113.228 6.25109 148.673 -3.6122 183.587 2.06137C231.438 9.84229 280.26 9.6934 328.697 1.62271C363.251 -4.13879 398.455 5.5946 425.279 28.3188C452.324 51.229 467.835 84.6898 467.835 120.12V221.583C467.835 262.467 459.902 302.35 444.256 340.121C428.61 377.895 406.019 411.705 377.108 440.615L340.787 476.936C317.411 500.312 286.705 512 256 512ZM164.195 40.4634C145.264 40.4634 126.85 47.1371 112.227 59.5744C94.3733 74.7606 84.1343 96.9173 84.1343 120.362V221.582C84.1343 293.645 112.197 361.396 163.154 412.353L199.476 448.674C230.644 479.843 281.357 479.841 312.525 448.674L348.846 412.353C399.803 361.396 427.866 293.646 427.866 221.583V120.12C427.866 96.4616 417.506 74.1171 399.444 58.815C381.603 43.6988 358.21 37.2269 335.267 41.0469C282.523 49.837 229.332 49.9929 177.173 41.5135C172.847 40.8101 168.506 40.4634 164.195 40.4634ZM331.982 21.3353H331.992H331.982Z" fill="url(#paint0_linear)"/>
<path d="M319.95 278.572C319.95 247.35 292.184 221.95 258.054 221.95C243.548 221.95 233.018 214.945 233.018 205.296C233.018 196.113 240.414 188.642 249.505 188.642C258.67 188.642 270.608 189.641 289.669 197.053C299.953 201.054 311.537 195.957 315.537 185.671C319.537 175.384 314.441 163.802 304.155 159.802C294.234 155.944 285.583 153.413 277.983 151.748V136.349C277.983 125.311 269.036 116.364 257.998 116.364C246.961 116.364 238.014 125.311 238.014 136.349V149.854C212.376 155.192 193.049 178.021 193.049 205.295C193.049 237.576 220.995 261.918 258.054 261.918C269.94 261.918 279.981 269.544 279.981 278.571C279.981 287.443 271.733 295.225 262.328 295.225C254.991 295.225 236.581 292.535 218.416 285.313C208.158 281.238 196.54 286.247 192.463 296.503C188.387 306.76 193.397 318.379 203.653 322.456C215.226 327.057 227.299 330.338 238.013 332.417V344.186C238.013 355.224 246.96 364.171 257.997 364.171C269.035 364.171 277.982 355.224 277.982 344.186V333.026C287.12 330.456 295.563 325.65 302.601 318.868C313.789 308.088 319.95 293.778 319.95 278.572Z" fill="white"/>
</g>
<defs>
<linearGradient id="paint0_linear" x1="44.1655" y1="256" x2="467.835" y2="256" gradientUnits="userSpaceOnUse">
<stop stop-color="#D8AD78"/>
<stop offset="0.503472" stop-color="#FDD9A8"/>
<stop offset="1" stop-color="#D1AA70"/>
</linearGradient>
<clipPath id="clip0">
<rect width="512" height="512" fill="white"/>
</clipPath>
</defs>
</svg>
