<svg width="512" height="512" viewBox="0 0 512 512" fill="none" xmlns="http://www.w3.org/2000/svg">
<g clip-path="url(#clip0)">
<path d="M80 256C80 135.824 169.826 36.628 286 21.89C276.175 20.643 266.163 20 256 20C125.661 20 20 125.661 20 256C20 386.339 125.661 492 256 492C266.163 492 276.175 491.357 286 490.11C169.826 475.372 80 376.176 80 256Z" fill="#FCD8A7" fill-opacity="0.2"/>
<path d="M432 256C432 267.046 423.046 276 412 276H362.679C362.412 284.887 361.988 293.725 361.369 302.42C360.619 312.955 351.839 321.001 341.44 321.001C340.963 321.001 340.482 320.984 339.999 320.949C328.981 320.165 320.686 310.597 321.47 299.58C322.023 291.819 322.413 283.934 322.667 276H189.549C192.255 326.612 204.561 371.454 214.095 402.05C217.381 412.596 211.496 423.809 200.95 427.095C198.97 427.712 196.965 428.005 194.994 428.005C186.472 428.005 178.574 422.515 175.905 413.95C165.571 380.784 152.2 331.895 149.497 276H100C88.954 276 80 267.046 80 256C80 244.954 88.954 236 100 236H149.5C152.22 180.112 165.673 131.203 176.07 98.02C179.373 87.479 190.596 81.609 201.135 84.916C211.676 88.219 217.543 99.44 214.24 109.981C204.651 140.582 192.275 185.422 189.552 236.001H322.498C320.563 195.756 312.809 154.325 298.914 109.981C295.611 99.44 301.478 88.218 312.019 84.916C322.561 81.612 333.781 87.481 337.084 98.02C352.234 146.37 360.611 191.717 362.551 236H412C423.046 236 432 244.954 432 256ZM437.02 74.98C388.667 26.629 324.38 0 256 0C187.62 0 123.333 26.629 74.98 74.98C26.629 123.332 0 187.62 0 256C0 324.38 26.629 388.668 74.98 437.02C123.333 485.371 187.62 512 256 512C266.859 512 277.799 511.311 288.517 509.951C299.475 508.561 307.231 498.552 305.841 487.594C304.451 476.636 294.439 468.88 283.484 470.27C274.429 471.418 265.182 472 256 472C136.897 472 40 375.103 40 256C40 136.897 136.897 40 256 40C375.103 40 472 136.897 472 256C472 264.835 471.451 273.786 470.369 282.605C469.024 293.568 476.821 303.546 487.784 304.892C498.748 306.24 508.726 298.44 510.071 287.477C511.351 277.047 512 266.457 512 255.999C512 187.62 485.371 123.332 437.02 74.98Z" fill="url(#paint0_linear)"/>
<path d="M357 472C345.954 472 337 463.046 337 452V396C337 362.916 363.916 336 397 336H454C465.046 336 474 344.954 474 356C474 367.046 465.046 376 454 376H397C385.972 376 377 384.972 377 396V452C377 463.046 368.046 472 357 472ZM506.142 506.143C513.953 498.332 513.953 485.668 506.142 477.858L440.142 411.858C432.331 404.047 419.668 404.047 411.858 411.858C404.048 419.669 404.047 432.333 411.858 440.143L477.858 506.143C481.763 510.048 486.881 512 492 512C497.119 512 502.237 510.048 506.142 506.143Z" fill="white"/>
</g>
<defs>
<linearGradient id="paint0_linear" x1="0" y1="256" x2="512" y2="256" gradientUnits="userSpaceOnUse">
<stop stop-color="#D8AD78"/>
<stop offset="0.503472" stop-color="#FDD9A8"/>
<stop offset="1" stop-color="#D1AA70"/>
</linearGradient>
<clipPath id="clip0">
<rect width="512" height="512" fill="white"/>
</clipPath>
</defs>
</svg>
