<svg width="512" height="512" viewBox="0 0 512 512" fill="none" xmlns="http://www.w3.org/2000/svg">
<path d="M469.167 115.166C460.882 120.743 450.905 124 440.167 124C411.448 124 388.167 100.719 388.167 72C388.167 43.281 411.448 20 440.167 20C450.905 20 460.882 23.257 469.167 28.833C455.294 38.171 446.167 54.019 446.167 72C446.167 89.981 455.294 105.828 469.167 115.166ZM446 253C446 235.019 455.127 219.172 469 209.833C460.715 204.256 450.738 201 440 201C411.281 201 388 224.281 388 253C388 281.719 411.281 305 440 305C450.738 305 460.715 301.743 469 296.167C455.127 286.828 446 270.981 446 253ZM446 440C446 422.019 455.127 406.172 469 396.833C460.715 391.256 450.738 388 440 388C411.281 388 388 411.281 388 440C388 468.719 411.281 492 440 492C450.738 492 460.715 488.743 469 483.167C455.127 473.828 446 457.981 446 440ZM116.024 468.589C116.024 384 80 340 80 340V255.644C80 226.042 98.738 200.817 125 191.182C117.629 188.478 109.665 187 101.356 187H88.644C50.733 187 20 217.733 20 255.644V340C20 340 56.024 384 56.024 468.589C56.024 481.878 68.237 492 81.526 492H108.474C114.568 492 120.432 489.867 125 486.28C119.608 482.046 116.024 475.784 116.024 468.589Z" fill="#FCD8A7" fill-opacity="0.2"/>
<path d="M440 326C400.299 326 368 293.701 368 254C368 214.299 400.299 182 440 182C479.701 182 512 214.299 512 254C512 293.701 479.701 326 440 326ZM440 222C422.355 222 408 236.355 408 254C408 271.645 422.355 286 440 286C457.645 286 472 271.645 472 254C472 236.355 457.645 222 440 222ZM440 144C400.299 144 368 111.701 368 72C368 32.299 400.299 0 440 0C479.701 0 512 32.299 512 72C512 111.701 479.701 144 440 144ZM440 40C422.355 40 408 54.355 408 72C408 89.645 422.355 104 440 104C457.645 104 472 89.645 472 72C472 54.355 457.645 40 440 40ZM108.474 512H81.526C56.436 512 36.024 492.526 36.024 468.589C36.024 393.25 4.84 353.055 4.525 352.67C1.599 349.096 0 344.619 0 340V255.644C0 206.766 39.766 167 88.644 167H101.356C150.234 167 190 206.766 190 255.644V340C190 344.688 188.524 349.021 185.521 352.615C184.252 354.255 153.976 394.315 153.976 468.589C153.976 492.526 133.564 512 108.474 512ZM40 333.597C50.619 349.524 76.023 395.291 76.023 468.589C76.023 469.905 78.541 472 81.525 472H108.473C111.457 472 113.975 469.905 113.975 468.589C113.975 395.292 139.38 349.524 149.999 333.597V255.644C150 228.822 128.178 207 101.356 207H88.644C61.822 207 40 228.822 40 255.644V333.597ZM170 340H170.01H170ZM94 136C56.505 136 26 105.495 26 68C26 30.505 56.505 0 94 0C131.495 0 162 30.505 162 68C162 105.495 131.495 136 94 136ZM94 40C78.561 40 66 52.561 66 68C66 83.439 78.561 96 94 96C109.439 96 122 83.439 122 68C122 52.561 109.439 40 94 40ZM440 512C400.299 512 368 479.701 368 440C368 400.299 400.299 368 440 368C479.701 368 512 400.299 512 440C512 479.701 479.701 512 440 512ZM440 408C422.355 408 408 422.355 408 440C408 457.645 422.355 472 440 472C457.645 472 472 457.645 472 440C472 422.355 457.645 408 440 408Z" fill="url(#paint0_linear)"/>
<path d="M313 421C290.626 421 272.424 402.797 272.424 380.424V274H311C322.046 274 331 265.046 331 254C331 242.954 322.046 234 311 234H272.424V130.576C272.424 108.203 290.626 90 313 90C324.046 90 333 81.046 333 70C333 58.954 324.046 50 313 50C268.57 50 232.424 86.146 232.424 130.576V380.424C232.424 424.854 268.57 461 313 461C324.046 461 333 452.046 333 441C333 429.954 324.046 421 313 421Z" fill="white"/>
<defs>
<linearGradient id="paint0_linear" x1="0" y1="256" x2="512" y2="256" gradientUnits="userSpaceOnUse">
<stop stop-color="#D8AD78"/>
<stop offset="0.503472" stop-color="#FDD9A8"/>
<stop offset="1" stop-color="#D1AA70"/>
</linearGradient>
</defs>
</svg>
