<svg width="512" height="512" viewBox="0 0 512 512" fill="none" xmlns="http://www.w3.org/2000/svg">
<path d="M421 322.658C412.023 327.339 401.825 330 391 330C355.102 330 326 300.898 326 265C326 229.102 355.102 200 391 200C401.825 200 412.023 202.661 421 207.342C400.206 218.184 386 239.927 386 265C386 290.073 400.206 311.816 421 322.658ZM80 392.041V119.959C80 64.753 124.644 20 179.716 20H119C63.771 20 19 64.771 19 120V392C19 447.228 63.771 492 119 492H179.716C124.644 492 80 447.247 80 392.041Z" fill="#FCD8A7" fill-opacity="0.2"/>
<path d="M244 126C244 139.807 232.807 151 219 151C205.193 151 194 139.807 194 126C194 112.193 205.193 101 219 101C232.807 101 244 112.193 244 126ZM476 265C476 218.131 437.869 180 391 180C344.131 180 306 218.131 306 265C306 311.869 344.131 350 391 350C437.869 350 476 311.869 476 265ZM436 265C436 289.813 415.813 310 391 310C366.187 310 346 289.813 346 265C346 240.187 366.187 220 391 220C415.813 220 436 240.187 436 265ZM212 512H119.979C53.823 512 0 458.177 0 392.021V119.979C0 53.823 53.823 0 119.979 0H304.02C370.198 0 424.02 53.823 424.02 119.979C424.02 131.025 415.066 139.979 404.02 139.979C392.974 139.979 384.02 131.025 384.02 119.979C384.02 75.878 348.142 40 304.041 40H119.979C75.879 40 40 75.879 40 119.979V392.02C40 436.121 75.879 472 119.979 472H212C223.046 472 232 480.954 232 492C232 503.046 223.046 512 212 512ZM330 126C330 139.807 318.807 151 305 151C291.193 151 280 139.807 280 126C280 112.193 291.193 101 305 101C318.807 101 330 112.193 330 126ZM158 212C158 225.807 146.807 237 133 237C119.193 237 108 225.807 108 212C108 198.193 119.193 187 133 187C146.807 187 158 198.193 158 212ZM158 298C158 311.807 146.807 323 133 323C119.193 323 108 311.807 108 298C108 284.193 119.193 273 133 273C146.807 273 158 284.193 158 298ZM158 384C158 397.807 146.807 409 133 409C119.193 409 108 397.807 108 384C108 370.193 119.193 359 133 359C146.807 359 158 370.193 158 384ZM244 212C244 225.807 232.807 237 219 237C205.193 237 194 225.807 194 212C194 198.193 205.193 187 219 187C232.807 187 244 198.193 244 212ZM244 298C244 311.807 232.807 323 219 323C205.193 323 194 311.807 194 298C194 284.193 205.193 273 219 273C232.807 273 244 284.193 244 298ZM244 384C244 397.807 232.807 409 219 409C205.193 409 194 397.807 194 384C194 370.193 205.193 359 219 359C232.807 359 244 370.193 244 384Z" fill="url(#paint0_linear)"/>
<path d="M492 512C480.954 512 472 503.046 472 492C472 452.299 439.914 420 400.475 420H383.526C344.086 420 312 452.299 312 492C312 503.046 303.046 512 292 512C280.954 512 272 503.046 272 492C272 430.243 322.03 380 383.525 380H400.474C461.97 380 512 430.243 512 492C512 503.046 503.046 512 492 512ZM133 101C119.193 101 108 112.193 108 126C108 139.807 119.193 151 133 151C146.807 151 158 139.807 158 126C158 112.193 146.807 101 133 101Z" fill="white"/>
<defs>
<linearGradient id="paint0_linear" x1="0" y1="256" x2="476" y2="256" gradientUnits="userSpaceOnUse">
<stop stop-color="#D8AD78"/>
<stop offset="0.503472" stop-color="#FDD9A8"/>
<stop offset="1" stop-color="#D1AA70"/>
</linearGradient>
</defs>
</svg>
