<svg width="85" height="40" fill="none" xmlns="http://www.w3.org/2000/svg"><path fill-rule="evenodd" clip-rule="evenodd" d="M34.794 0v32.01h-9.118V9.12l-5.96 22.892h-6.23L7.343 9.119V32.01H0V0h12.806l4.64 17.005L21.875 0h12.918zm15.398 0v32.01h-9.839V0h9.839zM83.17 0l-9.35 14.886L84.658 32.01H73.22l-5.911-10.055-5.991 10.055h-8.99l10.318-16.55L52.759 0h11.43l4.976 8.583L74.3 0h8.87z" fill="#fff"/><path fill-rule="evenodd" clip-rule="evenodd" d="M32.542 30.866V1.13h1.134v29.737h-1.134zm15.381-.009V1.128h1.134v29.73h-1.134zM0 34.12h84.657v.566H0v-.567zm.207 4.706L1.3 38.63c.092.311.327.467.708.467.296 0 .444-.079.444-.236a.218.218 0 00-.103-.192c-.068-.046-.19-.088-.367-.122-.672-.129-1.103-.298-1.295-.505a1.05 1.05 0 01-.286-.734c0-.362.138-.664.412-.904.275-.24.67-.36 1.185-.36.781 0 1.296.314 1.548.943l-.973.296c-.102-.257-.308-.386-.617-.386-.257 0-.385.08-.385.239 0 .07.028.127.087.166.057.04.17.076.337.111.46.095.786.18.979.254a1.08 1.08 0 01.676 1.025c0 .389-.158.704-.473.946-.315.242-.728.363-1.24.363-.935 0-1.513-.392-1.731-1.174zm18.464-1.803v2.92h-1.117v-2.92h-.795V36.1h2.707v.922h-.795zm17.191-.922v2.543c0 .482-.143.828-.429 1.04-.286.21-.66.316-1.119.316-.485 0-.873-.102-1.167-.304-.294-.203-.44-.532-.44-.99v-2.605h1.197v2.466c0 .184.04.318.117.402.078.085.203.127.374.127.142 0 .259-.03.35-.091.091-.062.146-.13.163-.208a2.37 2.37 0 00.027-.449v-2.247h.927zm13.572 3.841v-3.84h1.485c.646 0 1.13.19 1.45.573.32.383.48.826.48 1.329 0 .574-.171 1.04-.516 1.4-.343.359-.79.538-1.34.538h-1.559zm1.181-.88h.307c.195 0 .36-.096.494-.286.134-.19.201-.448.201-.775 0-.28-.06-.523-.178-.726a.568.568 0 00-.517-.304h-.307v2.09zm16.857-2.96v3.84h-1.18v-3.84h1.18zM82.744 40c-.54 0-.98-.18-1.322-.538-.34-.358-.51-.837-.51-1.436 0-.573.163-1.048.488-1.422.326-.373.778-.56 1.356-.56.534 0 .971.176 1.308.528.337.353.505.823.505 1.411 0 .61-.17 1.098-.51 1.466-.34.368-.777.551-1.315.551zm-.005-.87c.2 0 .344-.087.431-.26.088-.174.132-.492.132-.954 0-.669-.18-1.003-.54-1.003-.39 0-.583.381-.583 1.144 0 .715.187 1.073.56 1.073zM81.121 1.129l-8.624 13.729L82.63 30.866h-1.26l-10.2-15.988 8.539-13.75h1.411z" fill="#fff"/><path fill-rule="evenodd" clip-rule="evenodd" d="M78.442 1.129l-8.624 13.729L79.95 30.866h-1.258l-10.2-15.988 8.539-13.75h1.411z" fill="#fff"/></svg>