<svg width="393" height="55" fill="none" xmlns="http://www.w3.org/2000/svg"><g opacity=".15" filter="url(#filter0_i)"><path d="M.02 54h11.2V36.15c0-5.18-.98-12.95-1.61-18.06h.28l4.2 12.46 7.07 19.04h6.86l7-19.04 4.34-12.46h.35c-.7 5.11-1.68 12.88-1.68 18.06V54h11.41V1.85H35.86l-7.98 22.54c-.98 3.01-1.82 6.3-2.87 9.45h-.35c-.98-3.15-1.82-6.44-2.87-9.45L13.53 1.85H.02V54zm61.387 0h12.53V1.85h-12.53V54zm19.362 0h13.3l4.48-10.15c1.19-2.73 2.38-5.46 3.57-8.68h.28c1.4 3.22 2.59 5.95 3.85 8.68l4.83 10.15h13.93l-14.35-26.25 13.44-25.9h-13.23l-3.78 9.38a137.66 137.66 0 00-3.36 8.54h-.28c-1.47-3.36-2.59-6.09-3.78-8.54l-4.2-9.38H81.54l13.51 25.34L80.77 54zm65.714.98c12.6 0 19.88-7.63 19.88-16.31 0-7.35-3.85-11.69-10.29-14.28l-6.51-2.59c-4.62-1.82-7.84-2.94-7.84-5.88 0-2.73 2.31-4.27 6.16-4.27 4.06 0 7.28 1.4 10.71 3.99l6.23-7.84c-4.55-4.55-10.92-6.86-16.94-6.86-11.06 0-18.9 7-18.9 15.75 0 7.56 5.11 12.11 10.57 14.28l6.65 2.8c4.48 1.89 7.35 2.87 7.35 5.88 0 2.8-2.17 4.55-6.79 4.55-4.13 0-8.96-2.17-12.6-5.32l-7.14 8.61c5.39 4.97 12.67 7.49 19.46 7.49zm36.976-.98h12.53V12.28h14.14V1.85h-40.74v10.43h14.07V54zm55.556.98c13.86 0 20.86-7.91 20.86-25.48V1.85h-12.04v28.98c0 9.87-3.15 13.37-8.82 13.37-5.74 0-8.68-3.5-8.68-13.37V1.85h-12.46V29.5c0 17.57 7.21 25.48 21.14 25.48zm32.528-.98h15.68c15.19 0 25.69-8.19 25.69-26.32 0-18.13-10.5-25.83-26.39-25.83h-14.98V54zm12.53-10.08V11.86h1.68c8.4 0 14.35 3.43 14.35 15.82s-5.95 16.24-14.35 16.24h-1.68zM322.54 54h12.53V1.85h-12.53V54zm45.962.98c14.21 0 23.87-10.22 23.87-27.3 0-17.01-9.66-26.74-23.87-26.74s-23.87 9.66-23.87 26.74 9.66 27.3 23.87 27.3zm0-10.78c-6.86 0-11.06-6.44-11.06-16.52 0-10.08 4.2-16.03 11.06-16.03s11.13 5.95 11.13 16.03c0 10.08-4.27 16.52-11.13 16.52z" fill="url(#paint0_linear)"/></g><defs><linearGradient id="paint0_linear" x1="-6" y1="23.5" x2="397" y2="23.5" gradientUnits="userSpaceOnUse"><stop stop-color="#fff"/><stop offset="1" stop-color="#404040"/></linearGradient><filter id="filter0_i" x=".02" y=".94" width="392.352" height="57.04" filterUnits="userSpaceOnUse" color-interpolation-filters="sRGB"><feFlood flood-opacity="0" result="BackgroundImageFix"/><feBlend in="SourceGraphic" in2="BackgroundImageFix" result="shape"/><feColorMatrix in="SourceAlpha" values="0 0 0 0 0 0 0 0 0 0 0 0 0 0 0 0 0 0 127 0" result="hardAlpha"/><feOffset dy="3"/><feGaussianBlur stdDeviation="15"/><feComposite in2="hardAlpha" operator="arithmetic" k2="-1" k3="1"/><feColorMatrix values="0 0 0 0 0 0 0 0 0 0 0 0 0 0 0 0 0 0 0.07 0"/><feBlend in2="shape" result="effect1_innerShadow"/></filter></defs></svg>