<svg width="30" height="30" fill="none" xmlns="http://www.w3.org/2000/svg"><g clip-path="url(#clip0)"><path d="M16.758 18.044a3.516 3.516 0 110-6.088 3.513 3.513 0 000 6.088zM4.805 19.807v-9.614c0-3.235 2.616-5.857 5.842-5.857H7.09a5.86 5.86 0 00-5.86 5.86v9.609a5.86 5.86 0 005.86 5.86h3.557c-3.226 0-5.842-2.623-5.842-5.858z" fill="#FCD8A7" fill-opacity=".2"/><path d="M22.969 26.836H7.03A7.038 7.038 0 010 19.806v-9.61a7.04 7.04 0 017.031-7.032H22.97A7.04 7.04 0 0130 10.195v9.61a7.04 7.04 0 01-7.031 7.03zM7.03 5.508a4.693 4.693 0 00-4.687 4.687v9.61a4.692 4.692 0 004.686 4.687h15.939a4.693 4.693 0 004.687-4.687v-9.61a4.693 4.693 0 00-4.687-4.687H7.03zM15 19.688A4.693 4.693 0 0110.312 15 4.693 4.693 0 0115 10.312 4.693 4.693 0 0119.688 15 4.693 4.693 0 0115 19.688zm0-7.032A2.347 2.347 0 0012.656 15 2.347 2.347 0 0015 17.344 2.347 2.347 0 0017.344 15 2.347 2.347 0 0015 12.656z" fill="url(#paint0_linear)"/><path d="M24.2 12.246a3.226 3.226 0 01-3.223-3.223 1.172 1.172 0 112.343 0 .88.88 0 00.88.88 1.172 1.172 0 110 2.343zM9.14 9.141a1.172 1.172 0 10-2.343 0 .88.88 0 01-.879.879 1.172 1.172 0 000 2.343 3.226 3.226 0 003.223-3.222zm14.18 11.836a.88.88 0 01.88-.88 1.172 1.172 0 000-2.343 3.226 3.226 0 00-3.223 3.223 1.172 1.172 0 102.343 0zm-14.18-.118a3.226 3.226 0 00-3.222-3.222 1.172 1.172 0 000 2.343.88.88 0 01.879.88 1.172 1.172 0 102.344 0z" fill="#fff"/></g><defs><linearGradient id="paint0_linear" x1="0" y1="15" x2="30" y2="15" gradientUnits="userSpaceOnUse"><stop stop-color="#D8AD78"/><stop offset=".503" stop-color="#FDD9A8"/><stop offset="1" stop-color="#D1AA70"/></linearGradient><clipPath id="clip0"><path fill="#fff" d="M0 0h30v30H0z"/></clipPath></defs></svg>