<svg width="30" height="30" fill="none" xmlns="http://www.w3.org/2000/svg"><path d="M8.222 3.22h0L4.83 6.61s0 0 0 0a2 2 0 00-.586 1.433A18.642 18.642 0 009.472 20.53a18.663 18.663 0 0012.493 5.227h.028s0 0 0 0a1.97 1.97 0 001.395-.585l.002-.002 3.393-3.39s0 0 0 0 0 0 0 0a.75.75 0 000-1.061h0M8.223 3.22l18.913 17.146-.353.354M8.223 3.22a.75.75 0 011.06 0h-1.06zm18.56 17.5l-5-5s0 0 0 0a.75.75 0 00-1.06 0h-.001l-2 1.993-.205.203-.278-.074a9.857 9.857 0 01-3.934-2.1l-.026-.023-.022-.025a9.875 9.875 0 01-2.099-3.94l-.074-.279.204-.204 1.995-1.99s0 0 0 0a.75.75 0 000-1.061h0m12.5 12.5L14.636 7.866l-.353.354m0 0l-5-5 5 5zm-5.18-3.055l-.146-.146h-.421l-.146.147-2.5 2.505-.151.151.005.214a17.056 17.056 0 004.78 11.428l.006.006.007.006a17.065 17.065 0 0011.426 4.78l.214.005.151-.151 2.51-2.506.354-.354-.355-.354-3.24-3.231-.354-.353-.353.353-1.616 1.615-.002.002a.734.734 0 01-.675.202 12.249 12.249 0 01-5.376-2.705 12.25 12.25 0 01-2.705-5.375.75.75 0 01.206-.684h0l1.615-1.617.354-.353-.354-.354-3.234-3.23z" fill="#fff" stroke="#fff"/></svg>