<svg width="30" height="30" fill="none" xmlns="http://www.w3.org/2000/svg"><circle cx="15" cy="15" r="15" fill="#7294C7"/><path d="M22.355 18.837c0-.063-.063-.063-.063-.125-.249-.498-.81-1.12-1.556-1.806-.374-.31-.56-.56-.685-.684-.187-.25-.187-.436-.125-.686.063-.186.312-.498.747-1.058.25-.311.374-.498.56-.685.935-1.245 1.37-2.055 1.246-2.428l-.062-.063c-.062-.062-.125-.124-.25-.124-.124-.062-.31-.062-.497 0h-2.802l-.063.062c-.062.062-.062.062-.062.125-.249.685-.56 1.245-.872 1.868a10.39 10.39 0 01-.56.871c-.187.25-.311.436-.436.56-.124.125-.249.188-.311.312-.063.062-.187.125-.187.062-.062 0-.125 0-.125-.062l-.186-.187c-.063-.062-.063-.187-.125-.311v-3.113c0-.063-.062-.187-.062-.25l-.187-.186c-.062-.063-.187-.063-.249-.125a5.591 5.591 0 00-1.12-.124c-.997 0-1.682.062-1.931.187-.125.062-.25.124-.311.249-.125.124-.125.186-.063.186.312.063.56.187.685.374l.063.124c.062.063.062.187.124.374s.062.374.062.623v.996c0 .311-.062.498-.062.685 0 .187-.062.311-.125.374-.062.124-.062.186-.124.186 0 0 0 .063-.062.063-.063 0-.125.062-.25.062a.472.472 0 01-.248-.125.75.75 0 01-.312-.31 2.174 2.174 0 01-.373-.561c-.125-.25-.312-.498-.436-.872l-.125-.25a8.784 8.784 0 01-.311-.684c-.125-.311-.25-.56-.374-.872a.845.845 0 00-.187-.249h-.062s-.062-.062-.124-.062c-.063 0-.125-.062-.187-.062H7.348c-.249 0-.373.062-.436.124l-.062.062v.125c0 .062 0 .124.062.249.312.747.685 1.494 1.059 2.242.374.684.747 1.307.996 1.743.312.436.56.872.872 1.245.311.374.498.623.56.748l.25.249.186.187c.125.124.311.31.56.498.25.186.561.373.872.56.312.187.685.311 1.059.436.436.124.81.187 1.183.124h.934a.565.565 0 00.436-.186l.062-.063c0-.062.062-.062.062-.124v-.25c0-.248 0-.435.063-.622.062-.187.062-.311.124-.436a.86.86 0 01.187-.249l.125-.124h.062c.124-.063.311 0 .436.124.186.125.373.312.498.498.124.187.311.374.56.623.25.249.436.436.56.498l.187.125c.125.062.25.124.436.186.187.063.312.063.436.063l2.117-.063c.187 0 .374-.062.498-.124.125-.062.187-.125.187-.25v-.248c-.124-.125-.124-.187-.124-.25z" fill="#fff"/></svg>