<svg width="30" height="30" fill="none" xmlns="http://www.w3.org/2000/svg"><circle cx="15" cy="15" r="15" fill="#48C95F"/><path d="M20.945 9.047a7.821 7.821 0 00-5.543-2.297c-4.335 0-7.847 3.5-7.847 7.82 0 1.367.384 2.735 1.043 3.883L7.5 22.5l4.17-1.094a8.023 8.023 0 003.732.93c4.336 0 7.848-3.5 7.848-7.82-.055-2.024-.823-3.993-2.305-5.47zm-1.756 8.312c-.165.438-.933.875-1.317.93-.33.055-.768.055-1.207-.055-.275-.109-.659-.218-1.098-.437-1.976-.82-3.238-2.79-3.348-2.953-.11-.11-.823-1.04-.823-2.024s.494-1.422.659-1.64c.165-.22.384-.22.549-.22h.384c.11 0 .274-.054.439.33.165.382.549 1.366.604 1.42a.348.348 0 010 .33c-.055.108-.11.218-.22.327-.11.11-.22.274-.274.328-.11.11-.22.22-.11.383.11.219.494.82 1.097 1.367.769.657 1.372.875 1.592.985.22.11.33.054.439-.055.11-.11.494-.547.604-.766.11-.218.274-.164.439-.109.164.055 1.152.547 1.317.656.22.11.329.164.384.219.055.164.055.547-.11.984z" fill="#fff"/></svg>